<svg width="160" height="160" viewBox="0 0 160 160" fill="none" xmlns="http://www.w3.org/2000/svg">
<path d="M146.539 80.0087C148.737 81.9082 150 84.6696 150 87.5745V140C150 142.252 149.256 144.329 148 146C146.175 148.428 143.271 150 140 150H19.9998C14.4769 150 9.99976 145.523 9.99976 140V87.5745C9.99976 84.6696 11.2629 81.9082 13.4608 80.0087L14.03 79.5167L73.461 28.1516C77.2162 24.906 82.7838 24.906 86.539 28.1516L145.969 79.5164L146.539 80.0087Z" fill="#D9D9D9"/>
<path d="M11.9998 145.537C11.9998 145.537 53.1907 121.944 79.5839 106.826M79.5839 106.826C79.5839 106.894 79.5839 107 79.5839 107M79.5839 106.826C106.302 122.124 148 146 148 146M148 146C149.256 144.329 150 142.252 150 140V87.5745C150 84.6696 148.737 81.9082 146.539 80.0087L145.969 79.5164M148 146C146.175 148.428 143.271 150 140 150H19.9998C14.4769 150 9.99976 145.523 9.99976 140V87.5745C9.99976 84.6696 11.2629 81.9082 13.4608 80.0087L14.03 79.5167M146 79.5L145.969 79.5164M87.4998 111L145.969 79.5164M70.9998 111L14.03 79.5167M13.9998 79.5L14.03 79.5167M14.03 79.5167L73.461 28.1516C77.2162 24.906 82.7838 24.906 86.539 28.1516L145.969 79.5164" stroke="black" stroke-width="5"/>
<path d="M25 8H135V84.8739L88.1743 108.923L79.5 104L70 108.923L25 84.8739V8Z" fill="white" stroke="black"/>
<path d="M50 41H99.6667V44H50V41ZM50 31H110V34H50V31ZM50 51H104.833V54H50V51ZM50 61H94.5V64H50V61ZM50 71H99.6667V74H50V71ZM50 91H99.6667V94H50V91ZM50 81H110V84H50V81ZM61.2591 104L55.8591 101H100.833V104H61.2591Z" fill="black" stroke="black" stroke-width="2"/>
</svg>
